<?xml version="1.0" encoding="utf-8"?>
<!-- Generator: Adobe Illustrator 19.0.0, SVG Export Plug-In . SVG Version: 6.00 Build 0)  -->
<svg version="1.1" id="Layer_1" xmlns="http://www.w3.org/2000/svg" xmlns:xlink="http://www.w3.org/1999/xlink" x="0px" y="0px"
	 viewBox="0 0 426 315" style="enable-background:new 0 0 426 315;" xml:space="preserve">
<style type="text/css">
	.st0{fill-rule:evenodd;clip-rule:evenodd;fill:#FFFFFF;}
	.st1{fill:#FFFFFF;}
</style>
<g>
	<g>
		<g>
			<path class="st0" d="M355.8,47.8C355.8,47.8,355.8,47.8,355.8,47.8C355.8,47.8,355.8,47.8,355.8,47.8
				C355.8,47.8,355.8,47.8,355.8,47.8z"/>
			<path class="st0" d="M233.2,39.4c0.1,2.2-1.8,1.9-3.1,2.3C229.6,38.8,232.2,40.2,233.2,39.4z"/>
			<g>
				<g>
					<path class="st0" d="M147.7,40.5L147.7,40.5L147.7,40.5c0-2,0-3.9,0-5.9c-0.5,0.3-1,0.5-1.6,0.8c0-0.5-0.1-1-0.1-1.5
						c-0.3-0.3-0.6-0.3-1-0.1c-0.7,0.7-1,1.4-1.1,2.3c-0.1,0-0.1,0-0.2,0c0.5-1,0.5-1.9-0.6-2.5c-1.3-0.2-2.4,0.3-3.5,1.2
						c-0.1,0.2-0.3,0.3-0.5,0.5c-0.4-0.1-0.8,0-1.2,0c-0.1-0.3-0.3-0.5-0.5-0.6c-0.5,0-1,0.1-1.5,0.1c-0.1,0.6-0.1,1.3-0.8,1.5
						c-0.1-1.1-0.2-2.2-0.4-3.2c-0.9,0.6-2.1-0.2-2.4-0.1c-2.5,0.9-1.1,1.8,0.3,2.6c0,0.5-0.1,1-0.1,1.5c-0.9,1-1.8,1.9-2.7,2.9
						c0,0.5,0.1,1,0.1,1.5c0.6,2.3-1.6,4.5-0.1,6.8l0,0c0,0.5-0.1,1.1-0.1,1.6l0,0c0,0.4,0.1,0.8,0.1,1.2c-0.2,0.2-0.2,0.4,0,0.6
						c0.1,2.3,0.1,4.6,0.2,6.9c-0.2,0.2-0.2,0.4-0.2,0.7c-1.3,1.2,0.5,2.3,0,3.5c-0.4,0.7-0.5,1.3,0.2,1.8c1-0.6,1.5-1.4,1.5-2.6
						c0.8,0.5,1.7,0.5,2.5,0c1.7,1.2,4.7,0,4.9-1.9c0.2-2.2,0.2-3,0.3-5.2c1.3-0.8,0.2-2,1.6-2h-0.1c1.2,0,2,0.7,2,2.1
						c0-3.3,0-6.1,0-10.2h0.5h-0.1c1.1,0,3.8,2.3,3.4-1.2C147.4,42.4,147.9,41.8,147.7,40.5z M138.6,50.8c0.2,0,0.3-0.1,0.5-0.1
						c0,0.1,0,0.1,0,0.2C138.9,50.9,138.7,50.9,138.6,50.8z"/>
					<path class="st0" d="M142.9,128.6c0.2-1.8-0.3-3.7,1.1-5.2c0.6-0.1,0.8-0.5,0.8-1.1c0-3.3,0-6.6,0.1-10
						c0.2-2.9,0.1-5.7,0.1-8.6c0.1-2.2,0.1-4.5,0.2-6.7c0.2-4.6,0.5-9.3,0.7-13.9c-0.1,0.1-0.2,0.2-0.3,0.3c0.1-0.1,0.2-0.2,0.3-0.3
						c0.2-2,0.2-4,0.4-5.9c0.1-0.5,0-1,0-1.6c0-0.2,0-0.4,0-0.6c1.3-12.2,2.1-24.5,1.4-36.9c-2.5-0.5-4.2,1.3-6.2,2.2
						c-3.5,0.3-7,0.9-10.5,1c-2.4,0.1-2.2,1-1.3,2.5c-0.1,2.4-0.2,4.8-0.2,7.2c0,4.3-2.3,13.4-1.8,13.7c0.1,0,0.1,0,0.2,0
						c0,0.1,0.9,2.9,0.8,4.2c0,3.4-0.4,6.8-0.6,10.2c-0.7,3.5-1.3,7-0.6,10.6v0l0,0c-0.9,2.1-0.7,4.3-0.1,6.4
						c-0.6,2.6-0.6,5.1-0.4,7.7c-0.1,1.5-0.1,3.1-0.2,4.6c-0.5,5.7-0.6,11.4,0.1,17.1c-0.2,2.1-0.4,4.2,0.4,6.2
						c0,1.3-0.4,2.7,1.3,3.2c0,0.5-0.1,1-0.1,1.4c-0.2,0.7,0.2,1.1,0.8,1.3c0.6,0.1,1.2,0.2,1.6-0.2c0.3-0.3,0.6-0.5,0.8-0.5
						c0.3,0,0.5,0,0.8,0c0.5,0,1,0,1.6,0.1c-0.1,1-0.6,1.9,0.6,3.1c0.1-3.3,0.3-6.3,0.4-9.2c0-1.1,0.2-1.8,1.5-1.2
						c0,0.7,0,1.4,0.1,2.2c-0.1,1.5-0.2,3-0.4,4.5c-0.2,1.8,0.1,3.6,1.7,4.2c1.3,0.5,1.9-1.5,2.9-2.4c0.1-0.4,0.2-0.9,0.3-1.3
						C143.8,134.8,142.6,131.6,142.9,128.6z"/>
					<path class="st0" d="M145.2,128c0.2-1.1,0.2-2.4-0.9-2.6c-0.8-0.2-0.3,1.2-0.5,1.8c-0.2,1.5-0.7,3.1,0.6,4.6
						C145.6,130.5,145.1,129.2,145.2,128z"/>
				</g>
				<path class="st0" d="M189.6,105.4c0.8,0.1,1-0.8,1.5-1.1c0.7-1.8,1.9-3.4,2-5.5c0.5-1.5,2.5-2.7,1-4.6c1.8-1.7,2.9-3.8,3-6.3
					c0.7-0.9,1.3-1.8,1.1-3.1c0.4-0.7,1.1-1.3,0.8-2.2c0.9-2.2,2-4.4,2.5-6.8c0.1-0.2,0.1-0.5,0.1-0.7c2.2-5,4.4-10,6.6-15
					c2.7-3.1,3.7-7.7,8.1-9.4c-0.7-0.9-2.3-1.4-2.3-0.7v0v0c0,0-1.6-1.2-2.3-0.7c-1.3-0.5-0.6-0.5-4.7-1.1v0c0-1.2-2.7,1.7-3.7,3.1
					c-3.2,4.8-5.6,10.1-7.9,15.4c0.1,2.3-1.5,4.4-0.5,6.7c0,0.1,0,0.1-0.1,0.2c-1.4-1.1-1.5,1.2-2.4,1.2c-0.9,2.2-1.7,4.5-2.6,6.7
					l0,0c-2.1,1.2-0.8,3.2-1.1,4.8c-0.6,1.2-2,2-1.4,3.7c0.2,0.2,0.4,0.3,0.6,0.4l0,0l0,0c0.1,1.7-4,1.7-1.7,4.3
					C185.5,96.2,189.8,104.5,189.6,105.4z"/>
				<path class="st1" d="M162.6,140.4c0.9,0.8,1.7-0.4,2.6-1c1.7-1.7,3-3.6,3.7-5.7c1.7-2.6,3.4-5.1,5-7.7c0.9-1.5,1.8-3.1,2.8-4.6
					c2.9-4.9,6.7-9.5,8.9-14.5c1.1-1.1,1.7-2.3,2.2-3.6c1.4-1.4,2.4-3,3-4.7c0.2-0.5,0.4-1,0.6-1.4c0,0-0.1,0-0.1,0l0,0.1
					c0,0,0.2,0.2,0.2,0.2l0,0l-0.2-0.2c0,0,0-0.1,0-0.1c0,0,0,0,0,0c1.9-1.8,3.2-3.8,3.4-6c-0.5-8.6,1.8-17.1,1.8-16.9
					c-1,0.6-4.9,3.9-4.4,5.3l0,0c-2.4,1.2-2.9,3.9-4,5.9c-1.1,2.2-2.5,4.2-3,6.6c-0.4,2.1-0.7-0.3-1.3,0c-2.5,4-5.1,8-7.4,12
					c-0.8,1.4-2.8,3-1.7,4.4c-0.2,0.5-0.4,1-0.6,1.5c-2.4-0.5-2.7,1.5-2.9,2.7c-0.3,2.6-2,4.8-3.7,7c0.2,0.9,1.1,0.7,1.9,0.7
					c-0.2,0.5-0.4,1-0.6,1.5c-3.5,4.3-4.3,9.4-8.7,13.5c1.4-0.6,2.9,0.2,4-1.7c1.3,0.3-1.5,2.4-0.2,2.5
					C163.7,137.6,162.3,139,162.6,140.4z"/>
				<path class="st0" d="M218.1,30.7c-3.4,0.8-6.8,1.8-10.2,2.4c-2.3,0.4-2,1.3-0.9,2.7c0.3,2.4,0.5,4.8,0.8,7.2
					c0.6,4.2,2.1,8.5-0.5,12.5c-0.4,0.6-0.8,1.3-1.3,1.9c-6.6,10.9-24.6,44.9-30.3,56.7c-1-1.6-1.7-2.6-2.4-3.7
					c-0.5-0.4-1-0.4-1.5-0.1c-2.5,2.4,0.7,4.3,0.7,6.4c-0.1,0.6-0.1,1.3-0.2,1.9c-0.1,0.9-0.2,1.8-0.9,2.5c-0.4,0.3-0.8,0.5-1.2,0.7
					c-0.4,0.2-0.8,0.5-1.2,0.9c-0.9,0.8-2.1,1.4-1.6,3c1.1,1.4,1.3,2.9,0.5,4.5c-0.7,1.3-1.3,2.7-1.3,4.3c-0.1,0.7-0.7,1.6,0.8,1.5
					c2.1-0.1,3.6-1.6,3.9-3.2c0.5-3.5,3.1-3.9,5.6-4.7c0.9-0.3,2.1-0.1,2.7-1.1c2.3-0.7,1-2.5,1.1-3.8c-0.9-1.7-2.2-3.3-2.6-5.2
					c-0.1-1,0-2,0.9-2.8c2.9-4.2,4.9-8.8,5.9-13.8c2.5-6.8,18.5-35.7,22.2-41.9c0.8-0.5,1.1-1.4,1.4-2.2c1.8,0.7,1,2.4,1.2,3.6
					c0.4,3.4,4.3,23.8,4.6,27.2c-0.2,3.6-0.3,7.2,0.9,10.6c-0.6,2.2-0.1,4.3,0.8,6.3c-0.2,2.6,0.1,5.2,0.7,7.7
					c0.2,1.5,0.3,3.1,0.5,4.6c0.3,5.7,1,11.4,2.4,16.9c0.1,2.1,0.2,4.2,1.2,6.1c0.2,1.3,0,2.7,1.8,3c0,0.5,0.1,1,0.1,1.5
					c-0.1,0.7,0.3,1,1,1.2c0.6,0,1.1-0.2,1.5-0.7c0.2-0.3,0.5-0.6,0.7-0.9c0.3,0,0.5-0.1,0.8-0.1c0.5,0,1.1,0.1,1.6,0.1
					c0,1-0.3,2.1,1.1,3.1c-0.3-3.3-0.6-6.2-0.9-9.1c-0.1-1.1,0-1.8,1.3-1.3c0.1,0.7,0.2,1.4,0.4,2.2c0.1,1.5,0.2,3,0.3,4.5
					c0,1.8,0.6,3.6,2.3,3.9c1.3,0.3,1.7-1.7,2.5-2.8c-0.5-1.7-0.9-3.4-1.3-5.1c0.4,0.3,0.9,0.3,1.9-0.2c0.4-1.6-0.6-3.2,0.1-4.8
					c-0.1-1.8-0.8-3.6,0.3-5.3c0.2-1.8-0.5-3.6-0.3-5.4c-0.8-2.1-0.4-4.6-1.8-6.5c-0.3-0.5-0.7-0.9-1.3-1.1c-0.1,0-0.2,0-0.2,0
					c0.6-1.4-0.1-2.2-1.3-2.7c0.3-0.3,0.6-0.7,0.9-1c-0.1-0.5-0.1-1-0.2-1.5c-0.1-0.8-0.2-1.6-0.2-2.3l0,0c-0.2-1.8-0.3-3.6-0.5-5.4
					c-0.2-1.8,0-3.5-0.2-5.3c1.2-2.3-3.6-4.7,0.4-7v0c0,0.5,0.5-1.4,1.2-1.7c-0.1-2-0.7-4-0.8-5.9c0.1-0.5-0.3-1-0.3-1.6
					c0-0.2-0.1-0.4-0.2-0.6c-1.2-12.2-4.8-41.6-7.3-53.8"/>
				<g>
					<path class="st0" d="M344,50.7c-1.7,3.6-2.6,7.4-3.9,11.2c-0.8,2.3-0.2,3.1,1.4,4.3c2.5,1.9,5.8,2.7,7.5,5.7
						c0.5,0.4,0.9,0.3,1.1-0.2c0.5,0.5,1.1,1,1.6,1.6c0.2,0.4,0.4,0.8,0.6,1.1c1.6-1.2,2.3,0.9,3.6,0.9c2.3,1.5,4.7,3.1,7,4.6
						c3.6,2.7,7.1,5.5,11.3,7.3c1.7,2,4.2,3,6.4,4.2c0.5,1.1,1.7,1.4,2.7,1.9c0.8,0.5,1.7,1.1,2.5,1.6c0.6,1.1,1.6,1.6,2.7,1.9
						c0.3-0.1,0.5-0.2,0.7-0.4c1,0.2,1.9,0.7,2.7,1.4c1.4,2.8-1.4-0.8-0.9,0.6c0.9,1.6,2.5,2.1,4,2.7c1.5-0.8,2.7,1.2,4.2,0.5
						c0.4-0.5,0.5-1,0.3-1.6c0.3,0.1,0.5,0.3,0.8,0.4c0,0,0,0-0.1,0c0.1,0.3,0.2,0.6,0.4,0.9c0.8,0.6,1.2,1.5,1.5,2.4
						c0.5,1.1,1.5,1.4,2.5,1.8c1.6,0.5,3.2,1.3,5,0.5c0-0.8-0.2-1.5-0.8-2.1c1.5-0.8,2.5,0.7,3.8,0.9c0.3,0.1,0.5,0.3,0.8,0.4
						c0.4-0.3,0.9-0.6,1.3-0.9c-0.1-0.3-0.2-0.6-0.4-0.9c0,0,0.1,0.1,0.1,0.1c1,0.5,1.9,0.9,3.1,0.6c0.6,0,1.7-0.5,1.7-0.6
						c0.2-1.2-0.8,1.5-1.6-2.5c0,0,0,0,0,0s0,0.7,0,0.7c-0.5-0.3-1-0.2-1.5-0.5l0,0c0.1-0.2,0.2-0.3,0.3-0.5
						c0.2,0.1,0.4,0.2,0.6,0.3c0.8,0.4,1.5,1.2,2.8,0.7c-2.2-3.7-5.6-4.9-8.2-7.6c-0.4-0.2,0.2-1.2,0.2-1.2l0,0h0.4V94v-0.7
						c0-0.4-3.6-1.2-5.2-1.6c-1.7-0.5-3.5-0.5-4.4,1.4c-0.3,0-0.8,0-1.1,0c-0.4-0.5-0.9-0.9-1.3-1.4c0.8-0.7,1.1-1.6,1.2-2.6
						c0.5-0.9,1-1.8,1.6-2.7c0.3,0,0.6,0,1,0c-0.2-1.1-1.3-1.1-2-1.6c-0.5-1.6-2-0.9-3.2-1.5c-1.7-1.1-3.5-2.5-5.2-2.5h2.6V79
						c-4-0.4-2.6-0.7-3.3-1.1c-1.1-0.6-2.8-1.3-3.9-1.9c-2.6-2.3-5.8-4-8.8-5.7c-0.3,0.5-0.8,0.9-1.4,1c0-0.3-0.2-0.5-0.4-0.8
						c-1.9-1.7-4.3-2.8-6.8-3.4c-0.7-0.1-1.5,0.1-2.1-0.2c0,0,0,0,0,0c-0.9-1.3-3-1.2-3.8-2.9c-0.5-0.2-0.9-0.5-1.3-0.8
						c-0.3-1.4-1.5-1.5-2.4-2.1c-0.2-0.1-0.5-0.2-0.7-0.4c-2.3-1.5-4.8-2.6-7.6-2.5c-0.1-0.2-0.1-0.3-0.3-0.5
						c-0.6-1-1.4-1.1-2.4-1.6c-0.4-0.1-0.7,0.4-1.1,0.4c0,0,0,0,0,0c0.2-4,1.5-1.9,2.6-2c0.4,0,0.6-0.8,0.7-1.2
						c-0.6-2.3-3.6-1-4.4-2.7c0.6,0.3,1.2,1.4,2.1-0.2c-0.4-0.3-0.8-0.5-1.3-0.8C346,46.3,346,46.3,344,50.7z"/>
					<path class="st0" d="M409.2,89.6c-1.1-0.8-1.9-1.4-2.7-2C406.7,88.9,407.6,89.5,409.2,89.6z"/>
				</g>
				<g>
					<path class="st0" d="M51.8,91.3c-0.1,0.1-0.3,0.2-0.4,0.4c-0.1,0.3-0.1,0.6,0.1,0.8c0.7,0,1.3,0,2,0c1.1,1.4,3,0.1,4.3,1
						c-0.8,0.4-1,1.6-2,1.8c-0.7,0.1-1.8,0.1-1.5,1.2c0.4,1.4,1.5,1.3,2.6,0.7c0.8-0.2,1.7,0.2,2.4-0.4c0.1,0.1,0.1,0.1,0.2,0.2
						c2.8,0.3,5.2-1,7.8-1.5c8.7-1.7,17.3-3.8,26-5.4c2.6-0.6,5.3-0.9,7.9-1.5c3.2-0.8,6.5-0.7,9.7-0.1c5.2,0.8,7.9,3.9,7.9,8.6
						c0.1,2.2-0.5,4.2-1.1,6.3c-2,6.6-6.1,11.7-11.4,15.9c-2.9,2.6-6.1,4.6-9.4,6.6c-3.2,2-6.4,3.8-10,5c-1.3,0.6-2.7,1-4.1,1.4
						c-3.3,0.8-6.4,2.1-9.7,2.5c-2.3,0.7-4.8,1-7,2c-1.4,0.1-2.8,0.1-4.2,0.3c-2.4,0.3-4.1,0.1-3.9-3c0.1-1.1-0.3-2.3-1.4-2.8
						c-0.9-0.5-1-2.4-2.3-1.7c-1.2,0.6-0.6,2-0.5,3c0.4,3.5,1.9,6.7,1.8,10.3c0.7,3.4,0.6,7.1,2.4,10.3c1.3-0.3,0.2-1.9,1.6-2.3
						c0.2,3.1,2.3,3.4,4.6,3.2c1.3-0.1,2.6-0.3,3.9-0.5c1.5,0,2.9-0.1,4.4-0.1c2-0.5,4.1,0.3,6-0.6c1.4-0.6,2.8-1.1,4.3-1.3
						c3.6-0.8,7.3-1.5,10.4-3.8c0.7-0.3,1.2-0.9,2-0.8c1.4-0.5,3.1-0.6,3-2.6c2-0.6,3.7-1.7,5.5-2.7c0.2-1-0.2-1.5-1.3-1.2
						c-0.3,0.5-0.6,1.1-1.3,1.1c-1.1,0.7-3.8-0.2-1.1-1.2c0.3-0.1,0.5-0.3,0.7-0.5c0.7-0.7,1.5-1.2,2.3-1.8c0.1-0.2,0.2-0.3,0.3-0.5
						c3.4-1.7,6.5-3.9,9.1-6.7c0.1-0.1,0.1-0.3,0.2-0.4c0.1,0,0.3,0.1,0.4,0.1c0.3-0.3,0.5-0.5,0.8-0.8c0.2-0.5,0.4-1.1,0.2-1.5
						c0.5-0.5,1-1,1.5-1.6c0.7-1.2,1.2-2.6,2.3-3.5c0.2-0.2,0.4-0.4,0.5-0.7c0.4-0.6,0.8-1.2,1.3-1.7c1.6-1.8,2.6-4.1,4-6.1
						c0.2-0.3,0.3-0.6,0.4-0.9c2.5-5.5,3-11.3,2.3-17.3c-0.9-3.4-3-6.1-5-8.8c-3.2-4.3-8.3-6.9-11.1-11.6c-0.5-0.9-1.6-1.1-2.6-1.3
						c-2-0.4-4.1-1-6.2-1c-1.9,0.3-3.9,0.1-5.7,0.6c-2.4,0.6-5,0.4-7,2.2c-0.1,0.1-0.1,0.2-0.1,0.3c-0.4,0-0.9,0-1.3,0
						c0,0,0,0,0,0.1c-1.7,0.3-3.6,0-4.6,1.9c-0.4-0.2-0.9-0.4-1.3-0.6c-0.4,0.3-0.8,0.5-1.2,0.8c0,0.1,0,0.1-0.1,0.2
						c0-0.1,0-0.2,0.1-0.3c-0.7-0.4-1.3-0.1-1.8,0.3c-0.4,0.3-0.6,0.6-0.7,1.1c-0.6,0-1.1,0.1-1.7,0.1c-0.1-0.1-0.3-0.2-0.4-0.3
						c-0.3-0.1-0.5-0.1-0.8-0.1c-0.9,0.2-1.6,0.6-2.1,1.4c0,0.1,0,0.1,0,0.2c-0.6-0.1-1.3-0.2-1.8,0.4c-0.6-0.8-1.4-0.7-2.3-0.4
						c-0.7,0.3-1.3,0.6-1.8,1.2c0,0,0,0.1,0,0.1c-0.7,0-1.4,0-1.8,0.6c-0.6,0.1-1.3,0.1-1.9,0.2l0,0c-1.4,0.3-2.7,2.2-4.1,2.5
						c-0.8,0.2-2-1.1-1.2,2.9h0c-0.6,0-1.3-1.9-1.9-2.1c0,1.4-1.6,0.2-2.1,1c0,0,0-0.4,0.1-0.4c-0.7,0.4-1.2,0.8-0.8,1.8
						c-0.8-0.4-1.5-0.4-1.8,0.6C52.1,89.9,51.8,90.6,51.8,91.3z"/>
					<path class="st0" d="M6.3,124.7c1.1,0,2.2-0.1,3.1-0.7c1.3,0.5,1.6,1.5,1.4,2.8c0.6,0.6,1.2,1.2,1.7,1.8c0,1.4-1.9,1.9-1.7,3.4
						c-2.3,0.7-4.2-0.3-4.7-2.8C5.8,127.8,5.7,126.2,6.3,124.7z"/>
					<g>
						<path class="st0" d="M99.5,34.1C99.5,34.1,99.5,34.1,99.5,34.1C99.5,34.1,99.5,34.1,99.5,34.1L99.5,34.1z"/>
						<path class="st1" d="M108.8,47.3C108.7,47.3,108.7,47.3,108.8,47.3C108.7,47.3,108.7,47.3,108.8,47.3L108.8,47.3z"/>
						<rect x="80.9" y="80.7" class="st1" width="0" height="0"/>
						<path class="st1" d="M99.5,81.3C99.5,81.3,99.5,81.2,99.5,81.3C99.4,81.2,99.4,81.3,99.5,81.3C99.4,81.3,99.4,81.3,99.5,81.3z
							"/>
						<path class="st1" d="M80,86.9C80,86.9,80,86.9,80,86.9C80,86.9,80,86.9,80,86.9C80,86.9,80,86.9,80,86.9z"/>
						<path class="st1" d="M131.1,48.2c-0.3-1.3,0.8-2.8-0.7-3.9c-2-0.3-2.8-2.8-5-2.7c-0.4,0.1-0.7,0.2-1,0.4c0,0,0,0,0,0
							c-1.2-0.3-2.3-0.8-3.2-1.7c-2.6-0.5-5.1-1.1-7.7-1.6c-0.6-0.5-1.1-1.1-1.8-1.3c-0.8-0.2-1.5-0.1-2.3-0.2c-0.6,0-1.2,0-1.7,0.4
							c-0.2,0-0.4,0-0.6,0c-0.1,0-0.2,0-0.3,0c-0.3-0.3-0.6-0.7-1-1c-0.2,0.4-0.6,0.5-0.9,0.6c-0.8-3.1-3.4-1.5-5.2-1.9
							c-0.2,0-0.4,0-0.6,0c0.1-0.1,0.2-0.1,0.2-0.2c0.2-0.3,0.3-0.7,0.1-1c-4.8-0.5-9.6-0.4-14.3,0c-0.7,0-1.3,0.1-2,0.1
							c-0.3,0-0.5,0-0.8,0c-3.5-0.1-7,0.4-10.4,1.4c-2.1,0.3-4.3,0.5-6.4,0.9c-7.4,1.4-14.9,2.4-22.1,4.7c-1.2,0.4-3.8,0.2-2.8,3
							c0.5,1.8,0.4,3.8,1.4,5.5h0c-0.1,2,0.7,3.7,1.6,5.3c0.3,1.5,0.3,3.2,1.1,4.3c1.5,2.3,3.1,4.3,2.1,7.3
							c-0.1,1.2-0.2,2.4-0.3,3.6c-1.3,5.9-1.4,11.9-0.8,17.9c-0.9,1.3-1.2,2.7-0.8,4.2c-0.7,2-1.9,3.9-1.4,6.1
							c0.1-0.2,0.2-0.4,0.3-0.6c0,0.2-0.1,0.4-0.3,0.6c-0.5,1.5,0.1,3.2-0.8,4.7c-1,1.6-0.1,3.3-0.4,5c0,0.2,0,0.3,0,0.5
							c-0.1,0-0.1,0.1-0.2,0.1c0,1.2-0.1,2.5-0.1,3.7c-0.1,0.9,0.3,1.9,0.2,2.8c-0.7,1.9-0.1,3.8-0.1,5.7c0,1.5,0,3,0,5.5
							c0-1.8,0.7-2.6,1-3.3c0.3-0.4,0.4-0.9,0.7-1.3l0.3,0l0.3,0c0.5-0.3,1-0.5,1.5-0.8c0.4,2.5,1-0.3,1.5,0
							c0.6,0.7-0.5,2.7,1.6,2.3c0.1,0.1,0.1,0.1,0.2,0.2c-0.1,0.8,0,1.7-0.7,2.2c0,0.3,0,0.6,0,0.9c0.2,1.4-1.2,3.4,1.4,3.8
							c0.5-0.2,1-0.5,1.5-0.7c0.2,0.5,0.6,1.6,0.6,1.6c1.2-0.3,0.9-1.3,0.9-2.2c0-0.6,0.1-1.1,0.1-1.7c0.2,0,0.5,0,0.7,0
							c0,0.2,0.1,0.4,0.1,0.7c0,0.9-0.4,1.9,0.6,2.8c2.4-3.6,1-7.8,2.3-11.4c-0.1-0.1-0.2-0.1-0.4-0.1c0.4-1.2,0.8-2.4,1.2-3.6
							c0.3-0.6,0.6-1.1,0.7-1.7c1.1-5.7,1.8-11.5,2.4-17.3c0.2-1.7-0.2-4.2,3-3.6c1.2,1.6,22.9-8,25.5-10c1.2,1.7,2.3,2.5,3.2-0.2
							c0.2,0.1,0.5,0.1,0.7,0.1c0.7,1.2,1.6,1,2.5,0.2c0.7-0.2,1.5-0.5,2.3-0.7v0c1.5,2.3,4.3,0.2,6.7,0.6c0.9,0.6,2.1,0.3,2.1-0.3
							v0l0.4,0.4c1.2-0.9,2.3-2.3,3.9-2.3h0.1c0.8,0,2.6-2,3.9-2.7c1.3,0.2,1.4-1.5,2.4-1.8c0-0.1,0-0.3,0-0.4
							c0.1,0,0.1-0.1,0.2-0.1c3.7-1.1,6.2-3.7,8.3-6.7c2.6-4.6,3.8-9.8,5.3-14.8C131.6,52.4,131.9,50.2,131.1,48.2z M47.1,100.7
							c-0.4-0.1-0.7-0.1-1.1-0.2c-0.1,0-0.2,0-0.3,0c0-0.6,0.1-1.3,0.1-1.9c0,0,0.1,0,0.1-0.1c0.2,0.1,0.5,0.3,0.7,0.4
							c0,0.1,0,0.2,0,0.3c0.1,0.3,0.2,0.6,0.4,0.9c0.1,0.1,0.2,0.2,0.2,0.3C47.3,100.5,47.2,100.6,47.1,100.7z M108.8,47.3
							L108.8,47.3C108.7,47.3,108.7,47.3,108.8,47.3C108.7,47.3,108.7,47.3,108.8,47.3z M69.8,83.6c-2.6,0.2-4.8,1.5-7.2,2.1
							c-0.1,0-0.2,0-0.3,0c0-0.7-0.1-1.4-0.1-2.1c0.1-0.1,0.2-0.1,0.3-0.2c0.5-0.5,0.9-1,1-1.8c0.6-0.1,1.2-0.1,1.8-0.2v0
							c1.9,0.2,3.7-0.2,6-0.9C70.4,81.7,69.9,82.6,69.8,83.6z M80,86.9C80,86.9,80,86.9,80,86.9C80,86.9,80,86.9,80,86.9
							C80,86.9,80,86.9,80,86.9z M80.9,80.7L80.9,80.7L80.9,80.7L80.9,80.7L80.9,80.7z M99.5,81.3C99.4,81.3,99.4,81.3,99.5,81.3
							C99.4,81.3,99.4,81.2,99.5,81.3C99.5,81.2,99.5,81.3,99.5,81.3z M114.2,59.6c-2.8,2.1-6.4,2.8-8.9,5.3
							c-0.1,0.2-0.1,0.4-0.2,0.6c-1.6,0.7-3.2,1.4-4.8,2.1c-0.8,0.3-1.5,0.5-2.3,0.8c-1.8,0.8-3.6,1.5-5.4,2.3
							c-1.3,0.4-2.7,0.9-4,1.3c-0.2,0.1-0.5,0.2-0.7,0.3c-1,0.4-2.1,0.8-3.1,1.2c-2.3,0.7-4.7,1-6.6,2.6c-1.7,0.1-3.5,0-4.7,1.5
							c-1.5,0.6-3.4,0-4.7,1.4c-0.2,0.2-0.3,0.4-0.1,0.7c-1.1-0.2-2.1-0.9-3.1,0.1c-0.7,0.2-1.4,0.4-2.1,0.6
							c-0.1-0.5-0.2-0.9-0.3-1.4c0,0-0.1-0.1-0.1-0.1c0.3-0.2,0.6-0.4,0.9-0.6c0.8-1.8,1.1-3.7,1.1-5.6c0.1-3-0.1-5.9,0.1-8.9
							c0.4-5.2,0.9-5.7,6-6.9c4.5-1,9.2-0.9,13.6-2.9c0.2-0.3,0.4-0.5,0.7-0.7c4-0.2,7.9-0.5,11.9-0.7c2.4,0,4.8,0,7.2,0
							c0.8,0.2,1.7,0.3,2.5,0.7c3.6,1.4,7.7,1.2,11.3,3.2C117,58.3,115.4,58.7,114.2,59.6z"/>
					</g>
					<path class="st0" d="M101.8,138.1c0.1,2.2-1.8,1.9-3.1,2.3C98.1,137.5,100.7,138.9,101.8,138.1z"/>
				</g>
				<path class="st0" d="M345.4,83.1C345.4,83.1,345.4,83.1,345.4,83.1C345.4,83.1,345.4,83.1,345.4,83.1
					C345.4,83.1,345.4,83.1,345.4,83.1z"/>
				<path class="st1" d="M195.2,62c-1.2-0.4-2.5-1.3-2.7,0.8C193.4,62.7,194.5,62.9,195.2,62z"/>
				<path class="st1" d="M246.5,114c-0.4-0.2-0.8-0.2-1.2-0.2c-1.4,0.4-2.7,0.9-4,1.5c-1.3,0.6-1.5-0.2-1.7-0.9
					c-0.1-0.1-0.2-0.2-0.2-0.3c0.6,0,1.1-0.3,1.5-1c0.2-0.6,0.1-1.3-0.3-1.8c-0.2-0.1-0.4-0.3-0.6-0.4c1.5-1,4-1.6,2.9-4.1
					c-0.3-0.5-0.8-0.8-1.3-1.2c-0.3-0.1-0.6-0.3-0.9-0.3c0-0.2,0-0.3-0.1-0.5c0.3,0,0.6-0.1,0.9-0.2c1.1-0.9,2-2,2.2-3.3
					c0-0.6-0.2-1.1-0.7-1.5c-1.1-0.4-2.1,0.3-2.9,0.8c-3.6-1.1-7.1-0.9-11-0.5v0c0-0.1-0.4-0.2-0.7-0.3c-0.2-1.2-0.9-1.4-2.1-1
					c-1.7,0.5-3.4,0.8-5.1,1.2c-0.3-0.1-0.5,0-0.7,0.1c-1.8-0.7-3.6-1.1-5.5-0.1c-0.9,0-1.8,0-2.6,0.1c-3.1,0.3-6.3,0.3-9.2,1.3
					c-0.9,0.1-1.7,0.1-2.6,0.2c-2.5-0.7-4.8,0.7-7.3,0.6c-1.5,0-3,0-4.5,0c-3.3-1.4-6.6,0.4-10,0c0.6,0.4,1.2,0.8,1.8,1.1
					c-0.6,0.2-1.2,0.3-1.8,0.5c-2.8-0.4-5.5,0.3-8.2,0.8c-1.7-0.7-2.9,0.8-4.5,0.7c-1.2,0-2.4,0-3.6,0.1c-1.6-0.2-3.1-0.7-4.5,0.2
					c-0.4,0-0.7-0.6-1.1-0.6h0.3c-1.9,0-2.2,0.2-2.2,2.5v0c-4-0.9-6.2-0.3-8.1,1.2c-0.3-0.1-1.5-0.1-1.8,0c-1.7-0.5-3.8-0.6-5.1,0.7
					c-0.3,0.1-1.2-0.1-1.2-0.3v18.2c4,0,2.3,0,3.5-0.1c1.5,0,4.6,0,4.6,0v0c4-0.2,3.8,0.8,5.4-0.7c0.3,0,0.6-0.5,0.9-0.8
					c4.1,0.1,8.1-0.6,12-1.5c2.7-0.3,5.3-0.7,8-1c1.9,0.3,3.6-0.3,5.4-0.7c2.5,0.1,4.9-0.2,7.3-0.7c5.7-0.6,12.6-1.1,18.4-1.7
					c0.6,0,3,0,3,0v0.1c0,0,1.6,1,3.3,1c0,0,0,0,0,0c3.9,0,8-1,11.8-2.3c0.5-0.1,1.1-1.7,1.6-1.7c1.5,0,3,0,4.6,0
					c4.2,0,8.4,0.4,12.6-0.2c0,0,0,0.2,0,0.2c0,0,0,0,0,0c0.4,0,0.8,0.5,1.2,0.5c1.4-0.4,3.6,1.4,4.4-0.8
					C246.6,115.7,246.6,115,246.5,114z"/>
				<g>
					<path class="st0" d="M126.1,169.9c0.5,0,1-0.1,1.5-0.1c-0.1-1.8-1.2-1-1.8-1c1.4-1.2,3.5,1.5,5.1-0.3c0.1-0.4,0.1-0.8-0.2-1
						c-0.9-0.6-2.1-1.1-1.7-2.4c0,0,0,0,0,0c0.4,0.1,0.7,0.2,1.1,0.2c1.2,0.1,2.2-0.2,3.2-0.9c0.2-0.1,0.3-0.2,0.4-0.3
						c2.5,1.3,5.1,1.4,7.9,1.2c0.3,0,0.5,0,0.8,0c1.1-0.1,2.3,0.3,3.1-0.8c0.5,0,1-1.1,1.5-1.1c1.4-1.1,3.2,2.1,4.7-1.9c0,0,0,0,0,0
						c0.6,0,1.3,1.7,1.9,1.9c2.5,0.5,5,1.2,7.5,0.6c0.3-0.1,0.5-0.1,0.6-0.3c0.5,0.3,0.7,0.9,0.7,1.5c3.4-0.2,6.8-0.4,10.1-1.3
						c1.3-0.1,2.5-1.2,3.8-1.3c0.8,0,1.5-1.1,2.3-1.1h0.5v2.1c0-0.2,3.9-0.4,5.9-0.6c1.4,0,2.7,0.5,3.8-0.7c0.8-0.1,1.8,0.4,2.4-0.5
						c-0.3-0.1-0.6-0.3-0.9-0.4c-0.1-1.1-0.2-2.1-0.2-3.2c0.3-1,0.4-2,0-2.9c0.6-0.3,1.1-0.5,1.7-0.8c0.2,0.1,0.5,0.2,0.7,0.2
						c0,2.1,1.1,2.3,2.8,2.6c1.6,0.3,2.9-0.2,4.3-0.2l0,0h0l0,0l0,0c0.4,0,0.9,0.2,1.3,0.2c3.6-1.3,7.7,0.2,11.4-2.1
						c-0.9-1-1.9-0.6-2.8-0.6c-0.2,0-0.4,0-0.7-0.1c0-0.2,0-0.6,0-0.9l0,0c0.6,0,1.1-0.2,1.7-0.2c0,0,0,0,0,0c0,0,0,0.1,0,0.1
						c0.9,0,1.9,0.3,2.2-0.8c0-0.1-1-0.4-1.6-0.6c-0.8-0.8-1.9-0.9-3-0.9c-0.1,0-0.1,0-0.2,0c0.3-0.2,0.5-0.4,0.8-0.7
						c-0.2-0.5-0.5-0.9-0.7-1.4c-0.3,0-0.6,0-0.9,0c-1.3-0.4-2.8,0.5-3.8-0.9c0.8-0.3,1.3-0.8,1.6-1.5c-1.2-1.5-3-1.5-4.7-1.8
						c-1.1-0.1-2.2-0.3-3.1,0.5c-0.7,0.7-1.5,1.2-2.5,1.4c-0.3,0.1-0.6,0.3-0.8,0.6c0,0,0,0.1,0,0.1c-0.3,0-0.6,0-0.9,0
						c0.4-0.4,0.6-0.9,0.4-1.6c-1-1.4-3-0.1-4-1.5c-1.6-0.2-3.3-0.4-4.8,0.6c-1.1,1,3.1-0.9,0.5,1c-1,0.2-2,0.2-3,0
						c-0.1-0.3-0.2-0.5-0.5-0.7c-1.1-0.2-2.3-0.2-3.3,0.5c-1,0.1-2,0.2-3,0.3c-1.1,0-2.3-0.2-3.3,0.5c-2.6,0.1-5.2-0.2-7.6,0.8
						c-4.5-0.3-8.9,0.7-13.3,1.5c-2.8,0.3-5.6,0.6-8.3,1c-1.1-0.6-2.8,1-3.6-0.8c-0.3,0.2-0.7,0.5-1,0.7c-0.7,0.2-1.4,0.4-2.2,0.7
						c0-0.5-0.2-0.8-0.9-0.7c-2.8,1.9-6.2,1.2-9.3,1.7c-2,0.3-2.9,0.8-3.2,3.2c-0.5,3.9-1.4,7.8-1.5,11.7
						C121.2,171.3,121.1,171.3,126.1,169.9z"/>
					<path class="st0" d="M197.1,161.1c-1.4,0.3-2.3,0.4-3.3,0.6C194.6,160.5,195.5,160.4,197.1,161.1z"/>
				</g>
				<g>
					<path class="st0" d="M383.7,162.6c-1-0.5-2-0.9-3.1-0.8c-0.9-1-0.7-2.1,0-3.1c-0.3-0.8-0.5-1.6-0.8-2.4
						c0.7-1.3,2.6-0.8,3.1-2.3c2.4,0.4,3.6,2.2,3,4.6C385.5,160.1,384.9,161.5,383.7,162.6z"/>
					<path class="st0" d="M384.5,148.3c0.1,2.2-1.8,1.9-3.1,2.3C380.8,147.7,383.5,149.1,384.5,148.3z"/>
					<path class="st0" d="M400,184c-0.4-0.8-1.2-0.4-1.7-0.7c-1.9,0.4-3.9,0.2-5.7,1.2c-1.5,0.4-3.6-0.6-4.4,1.6
						c-2.4-0.6-4.7-0.4-6.9,0.9c-1.1-0.1-2.3-0.1-3.2,0.7c-0.8,0.1-1.7-0.3-2.3,0.5c-2.4,0.4-4.8,0.7-7.1,1.5
						c-0.2,0-0.4,0.1-0.7,0.3c-5.4,0.8-10.8,1.6-16.2,2.4c-4.1-0.6-8.5,1.4-12.3-1.5c-0.4,1.1-0.2,2.6,0.7,2.6h0v-0.3
						c0,0,0.7,1.2,1.5,1.6c0.3,1.4,2.5,2.7,2.5,3.8v0c0,2.2,2,1.9,3.7,1.9c5.8,0.1,11.1-0.4,16.8-1.3c1.8-1.3,4.3-0.9,5.7-3
						c0.1,0,0,0,0.1,0c-0.2,1.8,1.7,0.6,2.2,1.4c2.4-0.5,4.7-0.9,7-1.4l0,0c2.1,1.1,3.1-1,4.6-1.6c1.3-0.2,2.8,0.6,3.8-0.8
						c0-0.2,0.1-0.5,0.1-0.7l0,0l0,0c1.4-1,3.6,2.5,4.6-0.8C394.4,192.3,399.2,184.2,400,184z"/>
					<path class="st0" d="M385.6,188.8c-0.2,0.1-0.3,0.3-0.3,0.5c-1.3-1.6-3.1-1.7-5.2-1.1c-2.5,0.9-4.8,2.2-6.9,3.9
						c-1.5,0.5-2.8,1.4-3.9,2.4c-1,0.3-0.9,1-0.8,1.8c0.4,6.7,0.2,13.3-0.6,20c-1.1,9.4-2.1,18.9-1.7,28.4c-0.3,1.4-0.4,2.8-0.1,4.3
						c-0.9,3.7,0.4,7.5-0.7,11.2c-0.2,0.2-0.2,0.4-0.1,0.6c-0.4,1.9-0.6,3.8,0.1,5.6c1.1,0.4,1.4-0.5,1.8-1.2
						c0.3-2.3,1.3-4.4,2.5-6.5c0.1-1.8,1-2.8,2.8-3c0.3-0.3,0.5-0.6,0.6-0.9c0.6-2.3,0.9-4.7,1.5-7.1c0.1-0.6,0.2-1.1,0.3-1.7
						c0.2-2-0.2-4.1,0.3-6.2c0.1-0.4,0.2-0.7,0.2-1.1c0.3-1.1,0-2.2,0.3-3.3c0.6,2,0.8,4,1.6,5.9c0.6,1.3,1.2,2.6,3,2.2
						c0.4-0.1,0.6-0.4,0.8-0.8c-0.1-4.6,0.4-9.1,0.5-13.7c0.1-0.4,0.2-0.7,0.2-1.1c0.4,0,0.8,0.1,1.2,0.3c0.3-4.8,0.6-9.7,1-14.5
						c0.3-0.5,0.3-1,0.3-1.5c0.7-3.4,1-6.8,1.1-10.3c0-0.8,0.1-1.5,0.1-2.3C385.6,196.2,386.8,192.5,385.6,188.8z"/>
					<path class="st0" d="M381.8,217.8c0.2-0.1,0.3-0.3,0.5-0.5c0.1-0.3,0.1-0.7-0.1-1c-0.8,0-1.5,0-2.3,0c-1.3-1.6-3.5-0.1-5-1.1
						c1-0.5,1.2-1.9,2.4-2.1c0.8-0.1,2.1-0.1,1.7-1.4c-0.5-1.6-1.8-1.5-3-0.8c-0.9,0.2-2-0.2-2.8,0.5c-0.1-0.1-0.1-0.1-0.2-0.2
						c-3.2-0.3-6.1,1.2-9.2,1.7c-10.2,1.9-20.3,4.4-30.5,6.3c-3.1,0.7-6.2,1-9.2,1.8c-3.8,0.9-7.6,0.8-11.4,0.2
						c-6.1-1-9.2-4.6-9.3-10c-0.1-2.5,0.6-4.9,1.2-7.3c2.4-7.7,7.1-13.8,13.4-18.7c3.4-3,7.1-5.4,11-7.7c3.7-2.3,7.5-4.4,11.7-5.9
						c1.5-0.7,3.1-1.2,4.8-1.6c3.8-0.9,7.5-2.4,11.4-2.9c2.7-0.8,5.6-1.2,8.2-2.4c1.7-0.1,3.3-0.2,5-0.4c2.8-0.4,4.8-0.1,4.6,3.6
						c-0.1,1.2,0.4,2.7,1.6,3.3c1.1,0.6,1.2,2.8,2.7,2c1.4-0.7,0.7-2.3,0.6-3.5c-0.4-4.1-2.3-7.9-2.1-12.1c-0.8-4-0.8-8.3-2.8-12
						c-1.6,0.4-0.2,2.2-1.9,2.7c-0.2-3.7-2.7-4-5.4-3.7c-1.5,0.1-3,0.4-4.5,0.6c-1.7,0.1-3.4,0.1-5.1,0.2c-2.3,0.6-4.8-0.4-7.1,0.8
						c-1.6,0.7-3.3,1.3-5,1.6c-4.3,1-8.6,1.8-12.2,4.4c-0.8,0.3-1.4,1.1-2.3,0.9c-1.6,0.6-3.6,0.7-3.5,3.1c-2.3,0.7-4.3,2-6.5,3.1
						c-0.2,1.2,0.2,1.8,1.5,1.5c0.4-0.6,0.7-1.3,1.6-1.3c1.3-0.8,4.4,0.3,1.3,1.4c-0.3,0.1-0.6,0.3-0.9,0.5
						c-0.8,0.8-1.8,1.4-2.7,2.1c-0.2,0.2-0.3,0.4-0.3,0.6c-4,1.9-7.6,4.5-10.7,7.8c-0.1,0.2-0.1,0.3-0.2,0.5c-0.2,0-0.3-0.1-0.5-0.1
						c-0.3,0.3-0.6,0.6-0.9,0.9c-0.3,0.6-0.5,1.2-0.2,1.8c-0.6,0.6-1.2,1.2-1.7,1.9c-0.8,1.5-1.4,3-2.7,4.1
						c-0.2,0.3-0.4,0.5-0.6,0.8c-0.4,0.7-1,1.4-1.5,2c-1.9,2.2-3.1,4.8-4.7,7.1c-0.2,0.3-0.4,0.7-0.5,1c-2.9,6.5-3.5,13.3-2.7,20.2
						c1,4,3.5,7.1,5.9,10.3c3.8,5,9.7,8.1,13,13.6c0.6,1,1.9,1.3,3,1.5c2.4,0.5,4.8,1.1,7.2,1.2c2.2-0.3,4.5-0.1,6.7-0.8
						c2.8-0.7,5.9-0.5,8.2-2.6c0.1-0.1,0.1-0.2,0.1-0.4c0.5,0,1,0,1.5,0c0,0,0,0,0-0.1c2-0.3,4.2,0,5.3-2.3c0.5,0.3,1,0.5,1.5,0.8
						c0.5-0.3,1-0.6,1.4-0.9c0-0.1,0.1-0.1,0.1-0.2c0,0.1,0,0.2-0.1,0.4c0.8,0.4,1.5,0.1,2.1-0.3c0.4-0.3,0.7-0.8,0.9-1.3
						c0.6,0,1.3-0.1,1.9-0.1c0.1,0.1,0.3,0.2,0.4,0.3c0.3,0.1,0.6,0.2,1,0.1c1-0.3,1.9-0.8,2.4-1.7c0-0.1,0-0.2,0.1-0.2
						c0.8,0.1,1.5,0.2,2.1-0.5c0.8,0.9,1.7,0.9,2.7,0.4c0.8-0.3,1.6-0.7,2.1-1.4c0-0.1,0-0.1,0-0.2c0.8,0,1.6,0,2.2-0.7
						c0.7-0.1,1.5-0.1,2.2-0.2l0,0c1.6-0.4,3.2,0,4.8-0.4c0.9-0.2,2.3-0.9,1.4-0.9h0c0.8,0,1.5-0.4,2.3-0.1c0.1-1.6,1.8-1.5,2.5-2.4
						c0,0-0.1-0.2-0.1-0.2c0.8-0.5,1.4-1.2,1-2.4c1,0.5,1.7,0.4,2.1-0.9C381.5,219.6,381.9,218.6,381.8,217.8z"/>
				</g>
				<path class="st0" d="M117.9,265.7c-1,0.9-0.9,1.3,0,1.7c5,1.9,8.2,6.1,15.8,4.8c1.1-0.2,2.4,0.8,3.7,1.2
					c2.9,0.9,4.5,0.2,4.4-2.1c0.5-0.8,1.9-0.4,2.5-1c0.2-1.2-1.5-1.5-2.3-2.2c-0.8-1.2-2.3-1.9-3.6-2.8c-2.1-1.3-3.4-3.1-5.6-4.3
					c-0.5-0.3-1-0.6-1.5-1c0,0,0,0,0,0c0.8-1.4,0.2-2.6-0.8-3.7c0,0,0,0,0.1-0.1c0.2-0.3,0.4-0.6,0.4-1c-0.1-1,0.7-2-0.1-3
					c0-0.2,0-0.5,0-0.7c-1.2-1.4,0.3-3.1-0.5-4.5c0.1-0.7,0.2-1.4,0.2-2.2c0,0,0,0,0,0c0.2,1.3,0.4,2.5,0.7,3.8
					c0.2,0.3,0.4,0.6,0.7,0.9c2.5,0.2,3.7,1.2,3.6,2.9c1.4,2,2.6,4,2.8,6.3c0.5,0.7,0.8,1.5,2.4,1.2c1.3-1.8,1.2-3.6,0.8-5.5
					c0.2-0.2,0.2-0.4-0.1-0.6c-1.1-3.6,1.2-7.3,0.3-10.9c0.6-1.4,0.7-2.8,0.4-4.1c1.6-9.2,1.4-18.4,1-27.6c-0.1-1.7-0.1-3.3-0.1-5
					c0.5-3.5,0.8-6.9,0.9-10.4c0.2-1.3,0.4-2.7,0.7-4c0.2-0.7,0.5-1.4-0.7-1.7c0-3.1-0.2-6.2-0.3-9.3c-0.3-6.5,0.1-12.9,1.5-19.4
					c0.2-0.8,0.5-1.5-0.9-1.8c-1.5-1-3.2-1.9-5.3-2.4c-2.8-1.6-5.9-2.9-9.4-3.8c-0.2,0-0.3-0.1-0.5-0.1c-2.5-0.7-5.2-4.4-7.5,0.7
					c-2.1,3.6-0.9,7.1-1.2,10.7c-0.1,0.8-0.1,1.5-0.2,2.3c-0.3,3.4-0.2,6.7,0.3,10c-0.1,0.5-0.1,1,0.2,1.5c-0.1,2.3-0.1,4.6-0.2,6.8
					c-1.5,3.3-0.5,6.6-0.7,9.9c-0.1,0.8-0.1,1.5-0.2,2.3c-0.3,2.8-0.2,5.5,0.1,8.2c-0.1,5.4-0.1,10.9,0.1,16.3c0,0.1,0,0.1,0,0.2
					c0,0.3,0,0.6,0,0.8c-0.1,0.8-0.1,1.7-0.2,2.5c-0.1,0.3-0.2,0.9-0.1,0.9c-0.6,8.7-0.6,17.3-0.3,26
					C119.7,253.8,120.9,262.9,117.9,265.7z M123,165.7C123,165.7,123,165.7,123,165.7C123.1,165.7,123.1,165.7,123,165.7
					C123,165.7,123,165.7,123,165.7z M128.6,179.2c-0.2,0.4-0.4,0.4-0.2,0c0,0,0,0,0,0C128.5,179.2,128.6,179.2,128.6,179.2z
					 M129.5,244.7C129.5,244.7,129.5,244.8,129.5,244.7C129.5,244.8,129.5,244.8,129.5,244.7C129.5,244.8,129.5,244.7,129.5,244.7z"
					/>
				<path class="st1" d="M189.6,188.9c0.1-2-1.2-2-2.2-2.5c-2.3-0.5-4.5-0.6-6.4,0.5c-2.9,0.2-5.8,0.5-8.8,0.7
					c-1.7,0.3-3.4,0.6-5.1,0.8c-5.4,0.8-11.1,0.2-16.2,2.2c-1.4-0.4-2.7,0-4,0.5c-1.9-0.5-3.6-0.3-5.3,0.5c-0.5,0.2-1,0.4-1.4,0.6
					c0,0,0.1,0.2,0.1,0.1l0,0.7c0,0,0,0.4,0,0.4h-1.5v0.3c0-0.1,0.7-0.7,0.7-0.7c0,0,0.3-0.4,0.3-0.4c-2.5-0.8-4.5-0.7-6.4,1
					c-2-1.8-3.5-0.2-5.2-0.1c0,0.1-0.1,0.2-0.2,0.3c0.1-0.1,0.2-0.3,0.3-0.4c-0.5,0.1,0.8,0.2,0.3,0.3c-1.3-0.4-1.8,0-1.8,0.4v15.5
					c0-0.1-1.6-0.1-1.5-0.2c1,0.8,0,4,0.8,0h0c2.3,4,4.6-0.5,6.8-1c2.3-0.7,4.7-1,6.8-2.8c1.8-1.6,0.1,1.1,0.7,1.5
					c4.5-0.6,9-1,13.4-1.8c1.6-0.3,3.8,0.8,4.4-2.1c0.5-0.2,1-0.5,1.5-0.7c0.9,3.7,2.7,2.3,3.7,1.2c2.1-2.1,4.8-2,7.5-1.9
					c0.6-1.1-0.1-2.2-0.5-3.3c0.5-0.2,1-0.5,1.5-0.7c5.3,0.6,9.7-3.4,15.2-1.5c-1.3-1.3-1.5-4.1-3.5-3.7c-0.5-2.1,2.7-0.3,2-2.2
					C186.9,190.2,188.7,190.6,189.6,188.9z"/>
				<path class="st1" d="M253.6,200c-0.7,1.4-2.9,2.6-0.9,4.7c-0.1,0.5-0.2,1-0.3,1.6c-3.5-1.4-3.4,0.8-3.2,2.3c0.5,3-1.2,5-2.8,7.2
					c0.6,1.1,1.8,1.2,2.9,1.5c-0.1,0.5-0.2,1.1-0.3,1.6c-3.5,4-2.9,9.8-7.7,13.2c1.8-0.2,4.2,1.2,5.1-0.7c2,0.8-1.3,2.4,0.6,3
					c-0.3,1.5-1.7,2.7-0.8,4.5c1.5,1.2,2.3,0.1,3.3-0.3c1.8-1.5,3.1-3.3,3.3-5.5c1.5-2.5,3-5,4.6-7.5c0.8-1.5,1.5-3.1,2.4-4.6
					c2.5-4.8,6.4-9.1,7.7-14.4c1.1-1,1.6-2.2,1.9-3.5c1.5-1.3,2.4-2.8,2.7-4.6c0.1-0.5,0.2-1,0.4-1.5c0,0-0.2-0.1-0.2,0l-0.3,0.1
					c0,0-0.1,0.3-0.1,0.3v0l0.1-0.3c0.1,0,0.2-0.1,0.2-0.1c0,0,0.1,0,0.1,0c2.1-1.5,3.3-3.5,2.9-6c2.6-0.6,2.2-2.8,3.2-4.3
					c-0.1-0.1-0.1-0.3-0.1-0.4c0,0.1,0.1,0.3,0.2,0.4c0.2-0.5,0.6-1.2,0.7-1.6c1.1-0.8,1-1.5,1.9-3.4l-12.6-9.1
					c0.1,0,0.3,0.7,0.3,0.9c-1.3,0.3-2.4,0.8-1.2,2.7l0,0c-3,0.7-2.8,3.7-3.7,5.7c-0.8,2.3-2.2,4.2-2,6.9c0.2,2.4-1.1-0.6-1.8-0.4"
					/>
				<g>
					<path class="st0" d="M203.3,257.2c0.2-1.8-0.3-3.7,1.1-5.2c0.6-0.1,0.8-0.5,0.8-1.1c0-3.3,0-6.6,0.1-10
						c0.2-2.9,0.1-5.7,0.1-8.6c0.1-2.2,0.1-4.5,0.2-6.7c0.2-4.6,0.5-9.3,0.7-13.9c-0.1,0.1-0.2,0.2-0.3,0.3c0.1-0.1,0.2-0.2,0.3-0.3
						c0.2-2,0.2-4,0.4-5.9c0.1-0.5,0-1,0-1.6c0-0.2,0-0.4,0-0.6c1.3-12.2,2.1-24.5,1.4-36.9c-2.5-0.5-4.2,1.3-6.2,2.2
						c-3.5,0.3-7,0.9-10.5,1c-2.4,0.1-2.2,1-1.3,2.5c-0.1,2.4-0.2,4.8-0.2,7.2c0,4.3-2.3,13.4-1.8,13.7c0.1,0,0.1,0,0.2,0
						c0,0.1,0.9,2.9,0.8,4.2c0,3.4-0.4,6.8-0.6,10.2c-0.7,3.5-1.3,7-0.6,10.6v0l0,0c-0.9,2.1-0.7,4.3-0.1,6.4
						c-0.6,2.6-0.6,5.1-0.4,7.7c-0.1,1.5-0.1,3.1-0.2,4.6c-0.5,5.7-0.6,11.4,0.1,17.1c-0.2,2.1-0.4,4.2,0.4,6.2
						c0,1.3-0.4,2.7,1.3,3.2c0,0.5-0.1,1-0.1,1.4c-0.2,0.7,0.2,1.1,0.8,1.3c0.6,0.1,1.2,0.4,1.6-0.1c0.3-0.3,0.6-0.4,0.8-0.4
						c0.3,0,0.5,0,0.8,0c0.5,0,1-0.1,1.6,0c-0.1,1-0.6,1.9,0.6,3.1c0.1-3.3,0.3-6.3,0.4-9.2c0-1.1,0.2-1.8,1.5-1.2
						c0,0.7,0,1.4,0.1,2.2c-0.1,1.5-0.2,3-0.4,4.5c-0.2,1.8,0.1,3.6,1.7,4.2c1.3,0.5,1.9-1.5,2.9-2.4c0.1-0.4,0.2-0.9,0.3-1.3
						C204.2,263.3,203,260.1,203.3,257.2z"/>
					<path class="st0" d="M205.6,256.5c0.2-1.1,0.2-2.4-0.9-2.6c-0.8-0.2-0.3,1.2-0.5,1.8c-0.2,1.5-0.7,3.1,0.6,4.6
						C206,259,205.5,257.7,205.6,256.5z"/>
				</g>
				<path class="st0" d="M293,218.1c-0.1-2-0.7-4-0.8-5.9c0.1-0.5-0.3-1-0.3-1.6c0-0.2-0.1-0.4-0.2-0.6c-1.2-12.2-4.8-41.6-7.3-53.8
					c-2.6-0.2-3.9,1.9-5.8,3c-3.4,0.8-6.8,1.8-10.2,2.4c-2.3,0.4-2,1.3-0.9,2.7c0.3,2.4,0.5,4.8,0.8,7.2c0.6,4.2,2.1,8.5-0.5,12.5
					c-0.4,0.6-0.8,1.3-1.3,1.9c-6.6,10.9-44,83.6-49.7,95.4c-1-1.6-1.7-2.6-2.4-3.7c-0.5-0.4-1-0.4-1.5-0.1
					c-2.5,2.4,0.7,4.3,0.7,6.4c-0.1,0.6-0.1,1.3-0.2,1.9c-0.1,0.9-0.2,1.8-0.9,2.5c-0.4,0.3-0.8,0.5-1.2,0.7
					c-0.4,0.2-0.8,0.5-1.2,0.9c-0.9,0.8-2.1,1.4-1.6,3c1.1,1.4,1.3,2.9,0.5,4.5c-0.7,1.3-1.3,2.7-1.3,4.3c-0.1,0.7-0.7,1.6,0.8,1.5
					c2.1-0.1,3.6-1.6,3.9-3.2c0.5-3.5,3.1-3.9,5.6-4.7c0.9-0.3,2.1-0.1,2.7-1.1c2.3-0.7,1-2.5,1.1-3.8c-0.9-1.7-2.2-3.3-2.6-5.2
					c-0.1-1,0-2,0.9-2.8c2.9-4.2,4.9-8.8,5.9-13.8c2.5-6.8,37.9-74.4,41.6-80.6c0.8-0.5,1.1-1.4,1.4-2.2c1.8,0.7,1,2.4,1.2,3.6
					c0.4,3.4,4.3,23.8,4.6,27.2c-0.2,3.6-0.3,7.2,0.9,10.6c-0.6,2.2-0.1,4.3,0.8,6.3c-0.2,2.6,0.1,5.2,0.7,7.7
					c0.2,1.5,0.3,3.1,0.5,4.6c0.3,5.7,1,11.4,2.4,16.9c0.1,2.1,0.2,4.2,1.2,6.1c0.2,1.3,0,2.7,1.8,3c0,0.5,0.1,1,0.1,1.5
					c-0.1,0.7,0.3,1,1,1.2c0.6,0,1.1-0.2,1.5-0.7c0.2-0.3,0.5-0.6,0.7-0.9c0.3,0,0.5-0.1,0.8-0.1c0.5,0,1.1,0.1,1.6,0.1
					c0,1-0.3,2.1,1.1,3.1c-0.3-3.3-0.6-6.2-0.9-9.1c-0.1-1.1,0-1.8,1.3-1.3c0.1,0.7,0.2,1.4,0.4,2.2c0.1,1.5,0.2,3,0.3,4.5
					c0,1.8,0.6,3.6,2.3,3.9c1.3,0.3,1.7-1.7,2.5-2.8c-0.5-1.7-0.9-3.4-1.3-5.1c0.4,0.3,0.9,0.3,1.9-0.2c0.4-1.6-0.6-3.2,0.1-4.8
					c-0.1-1.8-0.8-3.6,0.3-5.3c0.2-1.8-0.5-3.6-0.3-5.4c-0.8-2.1-0.4-4.6-1.8-6.5c-0.3-0.5-0.7-0.9-1.3-1.1c-0.1,0-0.2,0-0.2,0
					c0.6-1.4-0.1-2.2-1.3-2.7c0.3-0.3,0.6-0.7,0.9-1c-0.1-0.5-0.1-1-0.2-1.5c-0.1-0.8-0.2-1.6-0.2-2.3l0,0c-0.2-1.8-0.3-3.6-0.5-5.4
					c-0.2-1.8,0-3.5-0.2-5.3c1.2-2.3,0.4-4.7,0.4-7v0C291.8,220.2,292.3,218.4,293,218.1z"/>
				<path class="st1" d="M257.7,196.8c-1.2-0.4-2.5-1.3-2.7,0.8C255.9,197.5,257,197.7,257.7,196.8z"/>
				<path class="st1" d="M307,242.5c-0.4-0.2-0.8-0.2-1.2-0.2c-1.4,0.4-2.7,0.9-4,1.5c-1.3,0.6-1.5-0.2-1.7-0.9
					c-0.1-0.1-0.2-0.2-0.2-0.3c0.6,0,1.1-0.3,1.5-1c0.2-0.6,0.1-1.3-0.3-1.8c-0.2-0.1-0.4-0.3-0.6-0.4c1.5-1,4-1.6,2.9-4.1
					c-0.3-0.5-0.8-0.8-1.3-1.2c-0.3-0.1-0.6-0.3-0.9-0.3c0-0.2,0-0.3-0.1-0.5c0.3,0,0.6-0.1,0.9-0.2c1.1-0.9,2-2,2.2-3.3
					c0-0.6-0.2-1.1-0.7-1.5c-1.1-0.4-2.1,0.3-2.9,0.8c-3.6-1.1-7.1-0.9-11-0.5v0c0-0.1-0.4-0.2-0.7-0.3c-0.2-1.2-0.9-1.4-2.1-1
					c-1.7,0.5-3.4,0.8-5.1,1.2c-0.3-0.1-0.5,0-0.7,0.1c-1.8-0.7-3.6-1.1-5.5-0.1c-0.9,0-1.8,0-2.6,0.1c-3.1,0.3-6.3,0.3-9.2,1.3
					c-0.9,0.1-1.7,0.1-2.6,0.2c-2.5-0.7-4.8,0.7-7.3,0.6c-1.5,0-3,0-4.5,0c-3.3-1.4-6.6,0.4-10,0c0.6,0.4,1.2,0.8,1.8,1.1
					c-0.6,0.2-1.2,0.3-1.8,0.5c-2.8-0.4-5.5,0.3-8.2,0.8c-1.7-0.7-2.9,0.8-4.5,0.7c-1.2,0-2.4,0-3.6,0.1c-1.6-0.2-3.1-0.6-4.5,0.3
					c-0.4,0-0.7-0.5-1.1-0.5h0.1c-1.9,0-2,0-2,2.3v0c-4-0.9-6.2-0.3-8,1.2c-0.3-0.1-1.5-0.1-1.7,0c-1.7-0.5-1.8-0.6-3.1,0.7
					c-0.3,0.1,0.8-0.1,0.8-0.3v18.2c0,0,0.3,0,1.5-0.1c1.5,0,2.6,0,2.6-0.1v0c4-0.2,3.8,0.8,5.4-0.7c0.3,0,0.6-0.5,0.9-0.8
					c4.1,0.1,8.1-0.6,12-1.5c2.7-0.3,5.3-0.7,8-1c1.9,0.3,3.6-0.3,5.4-0.7c2.5,0.1,4.9-0.2,7.3-0.7c5.7-0.6,12.6-1.1,18.4-1.7
					c0.6,0,2.9,0,2.9,0v0.1c0,0,1.6,1.2,3.4,1.2h0c3.9,0,8,1,11.8-0.3c0.5-0.1,1.1,0.3,1.6,0.3c1.5,0,3,0,4.6,0
					c4.2,0,8.4,0.4,12.6-0.2c0,0,0,0.2,0,0.2c0,0,0,0,0,0c0.4,0,0.8-1.6,1.2-1.6c1.4-0.4,3.6,0.4,4.4-1.9
					C307,245.3,307,243.5,307,242.5z"/>
				<path class="st0" d="M244.8,131.8c-1-0.5-2-0.9-3.1-0.8c-0.9-1-0.7-2.1,0-3.1c-0.3-0.8-0.5-1.6-0.8-2.4c0.7-1.3,2.6-0.8,3.1-2.3
					c2.4,0.4,3.6,2.2,3,4.6C246.6,129.3,246,130.8,244.8,131.8z"/>
				<path class="st0" d="M330.7,91.3c0.1,2.2-1.8,1.9-3.1,2.3C327,90.6,329.6,92,330.7,91.3z"/>
				<path class="st0" d="M326.8,97.8c0.2-0.1,0.3-0.3,0.5-0.5c0.1-0.3,0.1-0.7-0.1-1c-0.8,0-1.5,0-2.3,0c-1.3-1.6-3.5-0.1-5-1.1
					c1-0.5,1.2-1.9,2.4-2.1c0.8-0.1,2.1-0.1,1.7-1.4c-0.5-1.6-1.8-1.5-3-0.8c-0.9,0.2-2-0.2-2.8,0.5c-0.1-0.1-0.1-0.1-0.2-0.2
					c-3.2-0.3-6.1,1.2-9.2,1.7c-10.2,1.9-20.3,4.4-30.5,6.3c-3.1,0.7-6.2,1-9.2,1.8c-3.8,0.9-7.6,0.8-11.4,0.2
					c-6.1-1-9.2-4.6-9.3-10c-0.1-2.5,0.6-4.9,1.2-7.3c2.4-7.7,7.1-13.8,13.4-18.7c3.4-3,7.1-5.4,11-7.7c3.7-2.3,7.5-4.4,11.7-5.9
					c1.5-0.7,3.1-1.2,4.8-1.6c3.8-0.9,7.5-2.4,11.4-2.9c2.7-0.8,5.6-1.2,8.2-2.4c1.7-0.1,3.3-0.2,5-0.4c2.8-0.4,4.8-0.1,4.6,3.6
					c-0.1,1.2,0.4,2.7,1.6,3.3c1.1,0.6,1.2,2.8,2.7,2c1.4-0.7,0.7-2.3,0.6-3.5c-0.4-4.1-2.3-7.9-2.1-12.1c-0.8-4-0.8-8.3-2.8-12
					c-1.6,0.4-0.2,2.2-1.9,2.7c-0.2-3.7-2.7-4-5.4-3.7c-1.5,0.1-3,0.4-4.5,0.6c-1.7,0.1-3.4,0.1-5.1,0.2c-2.3,0.6-4.8-0.4-7.1,0.8
					c-1.6,0.7-3.3,1.3-5,1.6c-4.3,1-8.6,1.8-12.2,4.4c-0.8,0.3-1.4,1.1-2.3,0.9c-1.6,0.6-3.6,0.7-3.5,3.1c-2.3,0.7-4.3,2-6.5,3.1
					c-0.2,1.2,0.2,1.8,1.5,1.5c0.4-0.6,0.7-1.3,1.6-1.3c1.3-0.8,4.4,0.3,1.3,1.4c-0.3,0.1-0.6,0.3-0.9,0.5c-0.8,0.8-1.8,1.4-2.7,2.1
					c-0.2,0.2-0.3,0.4-0.3,0.6c-4,1.9-7.6,4.5-10.7,7.8c-0.1,0.2-0.1,0.3-0.2,0.5c-0.2,0-0.3-0.1-0.5-0.1c-0.3,0.3-0.6,0.6-0.9,0.9
					c-0.3,0.6-0.5,1.2-0.2,1.8c-0.6,0.6-1.2,1.2-1.7,1.9c-0.8,1.5-1.4,3-2.7,4.1c-0.2,0.3-0.4,0.5-0.6,0.8c-0.4,0.7-1,1.4-1.5,2
					c-1.9,2.2-3.1,4.8-4.7,7.1c-0.2,0.3-0.4,0.7-0.5,1c-2.9,6.5-3.5,13.3-2.7,20.2c1,4,3.5,7.1,5.9,10.3c3.8,5,9.7,8.1,13,13.6
					c0.6,1,1.9,1.3,3,1.5c2.4,0.5,4.8,1.1,7.2,1.2c2.2-0.3,4.5-0.1,6.7-0.8c2.8-0.7,5.9-0.5,8.2-2.6c0.1-0.1,0.1-0.2,0.1-0.4
					c0.5,0,1,0,1.5,0c0,0,0,0,0-0.1c2-0.3,4.2,0,5.3-2.3c0.5,0.3,1,0.5,1.5,0.8c0.5-0.3,1-0.6,1.4-0.9c0-0.1,0.1-0.1,0.1-0.2
					c0,0.1,0,0.2-0.1,0.4c0.8,0.4,1.5,0.1,2.1-0.3c0.4-0.3,0.7-0.8,0.9-1.3c0.6,0,1.3-0.1,1.9-0.1c0.1,0.1,0.3,0.2,0.4,0.3
					c0.3,0.1,0.6,0.2,1,0.1c1-0.3,1.9-0.8,2.4-1.7c0-0.1,0-0.2,0.1-0.2c0.8,0.1,1.5,0.2,2.1-0.5c0.8,0.9,1.7,0.9,2.7,0.4
					c0.8-0.3,1.6-0.7,2.1-1.4c0-0.1,0-0.1,0-0.2c0.8,0,1.6,0,2.2-0.7c0.7-0.1,1.5-0.1,2.2-0.2l0,0c1.6-0.4,3.2-0.4,4.8-0.8
					c0.9-0.2,2.3-1.2,1.4-1.2h0c0.8,0,1.5,0,2.3,0.2c0.1-1.6,1.8-1.4,2.5-2.3c0,0-0.1-0.1-0.1-0.1c0.8-0.5,1.4-1.2,1-2.4
					c1,0.5,1.7,0.4,2.1-0.9C326.6,99.5,326.9,98.5,326.8,97.8z"/>
				<path class="st1" d="M113.4,92.2c-1.2-0.4-2.5-1.3-2.7,0.8C111.6,93,112.7,93.1,113.4,92.2z"/>
				<g>
					<path class="st0" d="M352.3,99.9c0.2-1.8-0.3-3.8,1.1-5.4c0.6-0.1,0.9-0.6,0.9-1.1c0-3.4,0.1-6.8,0.1-10.3
						c0.2-3,0.1-5.9,0.1-8.9c0.1-2.3,0.1-4.6,0.2-6.9c0.2-4.8,0.5-9.6,0.7-14.3c-0.1,0.1-0.2,0.2-0.3,0.3c0.1-0.1,0.2-0.2,0.3-0.3
						c0.2-2,0.2-4.1,0.4-6.1c0.1-0.5,0-1.1,0-1.6c0-0.2,0-0.4,0-0.6c1.4-12.6,2.2-25.2,1.4-37.9c-2.6-0.5-4.3,1.4-6.4,2.3
						c-3.6,0.4-7.2,0.9-10.8,1c-2.5,0.1-2.2,1-1.4,2.6c-0.1,2.5-0.2,5-0.2,7.5c0,4.4-2.4,13.8-1.9,14.1c0.1,0,0.1,0,0.2,0
						c0,0.1,0.9,3,0.9,4.3c0,3.5-0.4,7-0.6,10.5c-0.7,3.6-1.3,7.2-0.6,10.9v0l0,0c-0.9,2.2-0.7,4.4-0.1,6.6c-0.6,2.6-0.7,5.3-0.4,8
						c-0.1,1.6-0.1,3.2-0.2,4.7c-0.5,5.9-0.6,11.7,0.1,17.6c-0.2,2.2-0.4,4.3,0.4,6.4c0,1.3-0.4,2.8,1.4,3.3c0,0.5-0.1,1-0.1,1.5
						c-0.2,0.7,0.2,1.1,0.8,1.4c0.6,0.1,1.2,0.4,1.7,0c0.3-0.3,0.6-0.4,0.9-0.4c0.3,0,0.5,0,0.8,0c0.5,0,1.1-0.2,1.6,0
						c-0.1,1-0.6,1.9,0.6,3.1c0.2-3.4,0.3-6.5,0.4-9.5c0-1.1,0.2-1.9,1.6-1.2c0,0.8,0,1.5,0.1,2.2c-0.1,1.5-0.2,3.1-0.4,4.6
						c-0.2,1.8,0.1,3.7,1.7,4.3c1.3,0.5,2-1.5,2.9-2.5c0.1-0.4,0.2-0.9,0.3-1.3C353.3,106.3,352,102.9,352.3,99.9z"/>
					<path class="st0" d="M354.7,99.3c0.2-1.1,0.2-2.5-0.9-2.7c-0.9-0.2-0.3,1.2-0.5,1.9c-0.2,1.6-0.7,3.2,0.6,4.7
						C355.1,101.8,354.6,100.5,354.7,99.3z"/>
				</g>
				<g>
					<path class="st0" d="M323,74c3,2.8,6.4,4.9,9.6,7.4c2,1.5,3,1.2,4.7,0c2.6-1.9,4.5-4.8,8-5.5c0.6-0.4,0.5-0.8,0.1-1.1
						c0.7-0.4,1.4-0.7,2.1-1.1c0.4-0.1,0.9-0.1,1.3-0.2c-0.7-1.9,1.6-2,2-3.2c2.3-1.8,4.5-3.6,6.8-5.4c3.8-2.6,7.7-5.1,10.8-8.6
						c2.5-1.1,4.2-3.1,6.2-4.9c1.3-0.2,1.9-1.2,2.8-2c0.8-0.7,1.6-1.3,2.4-2c1.3-0.2,2-1.1,2.8-2c0-0.3-0.1-0.6-0.2-0.8
						c0.6-0.9,1.3-1.6,2.2-2.2c3.2-0.5-1.2,1.1,0.3,1.1c1.8-0.4,2.9-1.7,3.9-3c-0.3-1.7,2.1-2.3,1.8-4c-0.3-0.6-0.9-0.8-1.5-0.8
						c0.2-0.2,0.4-0.4,0.7-0.7c0,0,0,0.1,0,0.1c0.3,0,0.7,0,1-0.2c0.9-0.5,1.8-0.7,2.8-0.7c1.2-0.1,1.9-1,2.6-1.9
						c1-1.4,2.3-2.8,2.1-4.7c-0.8-0.3-1.5-0.3-2.3,0.1c-0.3-1.8,1.5-2.2,2.2-3.4c0.2-0.2,0.4-0.4,0.6-0.6c-0.2-0.5-0.3-1-0.5-1.5
						c-0.3,0-0.7,0-1,0.1c0,0,0.1-0.1,0.1-0.1c0.8-0.8,1.5-1.6,1.5-2.8c0.2-0.6,0.3-1.6,0.2-1.6c-1.1-0.6-2.7,0.3-2.7,1v0v0
						c0,0.4-0.4,0.8-0.8,1.1l0,0c-0.2-0.2-0.1-0.3-0.3-0.5c0.1-0.2,0.4-0.4,0.5-0.5c0.6-0.7,1.7-1.1,1.6-2.5
						c-4.4,0.9-6.3,5.4-9.9,7.1c-0.3,0.3-0.6,1.4-1,1.4l0,0l0,0h0l0,0c-0.8,0-2.3,1.3-3.2,2.7c-1,1.5-1.5,2.3,0,3.8
						c-0.1,0.2-0.2,0.4-0.3,0.6c-0.6,0.2-1.2,0.4-1.8,0.6c-0.4-1-1.2-1.7-2.1-2.1c-0.7-0.8-1.4-1.7-2.1-2.5c0.1-0.3,0.2-0.7,0.3-1
						c-1.2-0.2-1.5,0.9-2.2,1.4c-1.7,0-2.4,1.4-3.4,2.4c-1.7,1.3-3.3,2.7-5,4l0,0l0,0c-0.6,0.5-1.1,1.1-1.7,1.6
						c-1,0.9-2,1.7-2.9,2.6c-3.1,1.8-5.7,4.1-8.3,6.4c0.4,0.4,0.7,0.9,0.5,1.5c-0.3-0.1-0.6-0.1-0.9,0c-2.3,1.3-3.9,3.4-5.3,5.7
						c-0.3,0.6-0.2,1.7-0.6,2.1c0,0,0,0,0,0c-2.3-0.2-2.3,2.4-4.2,2.6c-0.4,0.4-0.9,0.6-1.3,1c-1.4-0.2-2,1-2.9,1.7
						c-0.2,0.2-0.4,0.3-0.6,0.5c-2.2,1.8-4.1,3.8-4.9,6.6c-0.2,0-0.4,0-0.5,0.1c-1.2,0.2-2.2,0.7-3,1.7c-0.2,0.3-0.5,0.6-0.6,1
						c0,0,0,0,0,0c-1.2-0.6-0.7-1.8-0.5-2.9c0.1-0.4-0.3-0.7-0.6-0.9c-2.5-0.2-2,3.3-3.9,3.4c0.5-0.5,1.8-0.7,0.6-2.1
						c-0.4,0.3-0.8,0.7-1.1,1C319.3,70.6,319.3,70.6,323,74z"/>
					<path class="st0" d="M382,22.8c-1.2,0.8-2,1.4-2.8,1.9C380.6,25,381.4,24.4,382,22.8z"/>
				</g>
				<path class="st0" d="M206.6,166.5L206.6,166.5L206.6,166.5c0-1.8,0-3.7,0-5.5c-0.5,0.2-1,0.5-1.5,0.7c0-0.5-0.1-1-0.1-1.4
					c-0.3-0.3-0.6-0.3-0.9-0.1c-0.6,0.6-1,1.3-1,2.2c-0.1,0-0.1,0-0.2,0c0.5-0.9,0.5-1.8-0.6-2.4c-1.3-0.2-2.3,0.3-3.2,1.1
					c-0.1,0.2-0.3,0.3-0.4,0.5c-0.4-0.1-0.7,0-1.1,0c-0.1-0.2-0.3-0.5-0.5-0.6c-0.5,0-0.9,0.1-1.4,0.1c-0.1,0.6-0.1,1.2-0.8,1.4
					c-0.1-1-0.2-2-0.3-3c-0.8,0.6-2-0.2-2.3-0.1c-2.4,0.9-1,1.7,0.2,2.5c0,0.5-0.1,0.9-0.1,1.4c-0.8,0.9-1.7,1.8-2.5,2.7
					c0,0.5,0.1,0.9,0.1,1.4c0.6,2.1-1.5,4.2-0.1,6.4l0,0c0,0.5,0,1-0.1,1.5c0,0,0,0,0,0c0,0.4,0.1,0.7,0.1,1.1
					c-0.2,0.2-0.2,0.3,0,0.5c0.1,2.1,0.1,4.3,0.2,6.4c-0.2,0.2-0.2,0.4-0.2,0.7c-1.3,1.1,0.4,2.2,0,3.3c-0.4,0.6-0.4,1.2,0.2,1.7
					c0.9-0.5,1.5-1.3,1.4-2.5c0.8,0.5,1.6,0.5,2.4,0c1.6,1.1,4.4,0,4.6-1.8c0.2-2,0.2-3.1,0.3-5.1c1.2-0.7,0.2-2.1,1.5-2.1h-0.1
					c1.1,0,3,1.1,3,2.5c0-3.1,0-6.5,0-6.5h-0.6h-0.1c1,0,3.6,0.6,3.2-2.6C206.3,169.7,206.8,167.7,206.6,166.5z M198.1,176.2
					c0.2,0,0.3-0.1,0.5-0.1c0,0.1,0,0.1,0,0.2C198.4,176.2,198.2,176.2,198.1,176.2z"/>
			</g>
			<path class="st1" d="M367.7,269.9c-1.2-0.4-2.5-1.3-2.7,0.8C366,270.6,367.1,270.8,367.7,269.9z"/>
			<path class="st1" d="M313.8,244.6c-1.2-0.4-2.5-1.3-2.7,0.8C312.1,245.3,313.1,245.5,313.8,244.6z"/>
			<path class="st0" d="M138,27.7c0.1,2.2-1.8,1.9-3.1,2.3C134.3,27,136.9,28.4,138,27.7z"/>
			<path class="st1" d="M138.3,262.7c-1.2-0.4-2.5-1.3-2.7,0.8C136.6,263.4,137.7,263.6,138.3,262.7z"/>
			<path class="st1" d="M119.6,97.9c1.4-3.2,1.8-6.5,1.8-9.1c-0.7-2.7-1-5.6-4.6-6.6c-0.4-0.3-0.7-0.5-1.1-0.8
				c-1.8-1.6-3.6-3.2-5.5-4.8c-0.7-0.6-1.7-0.8-2.3,0.2c-0.7,1.2,0.3,2.1,1.1,2.8c-6.4,1.6-1,5.5,3.9,11.7c-0.2,0.4-0.5,0.8-0.8,1.2
				c-2.4,7.5-7.5,12.5-14.5,15.9c-3.4,1.6-7.2,2.6-10.3,4.9c-0.9-0.5-1.8-0.2-2.9,0.2c-6.1,2.1-12.2,4-18.4,6
				c-3.9,0.2-7.6,1-11.2,2.8c-0.6,0.3-1.2,0.4-1.7,0.3c0.2-0.3,0.4-0.6,0.6-1c0.1-0.2,0.3-0.4,0.4-0.7c0,0-0.1,0.1-0.1,0.1
				c-0.8,0.3-5.1-0.7-6.5-1.5c-1.5,2.4-3.1,4.4-6.3,4.1c-4.1,0.5-8.2,1.1-12.3,1.6c-1.2,0.1-2.4,0.2-3.6,0.3
				c-3.5-1.1-7.1-0.7-10.6,0c-2.2,2.4,1.3,3.2,1.4,5c2.4-0.1,4.9-0.1,7.3-0.2c2.4,0.9,4.7,1.1,7-0.4c2-0.1,3.9-0.1,5.9-0.2
				c2.1,0.8,2.5-1.4,3.7-2.1c1.9,1,2.8,2.4,3,4.1c1.9-0.7,3.8-1.4,5.1-1.8c1.2-1.2,2.7-1.8,4.6-2c3.7-0.3,7.3-1.3,11-2
				c1.6-0.3,3.3-0.7,4.9-1c5.3-0.8,10.6-1.9,15.6-4c0,0,0,0,0,0c3,1.6,5.7,0,8.4-0.9c4.7-1.6,8.8-4.3,13.3-6.5
				c1-0.9,2.1-1.8,3.2-2.8c4.5-3.9,3.1-5.4,5.9-8.6C118,99.3,116.8,104.3,119.6,97.9z M24.6,128.8C24.7,128.8,24.7,128.9,24.6,128.8
				c0.1,0.1,0,0.1,0,0.1C24.7,128.9,24.7,128.8,24.6,128.8z"/>
		</g>
		<g>
			<path class="st1" d="M232.8,285.2h5.2c0.8,0,1.6,0.1,2.3,0.2c0.7,0.2,1.4,0.4,2,0.8c0.6,0.4,1,0.9,1.4,1.5
				c0.3,0.6,0.5,1.4,0.5,2.3c0,1-0.2,1.8-0.5,2.4c-0.4,0.6-0.8,1.1-1.4,1.5c-0.6,0.4-1.2,0.6-1.9,0.8c-0.7,0.2-1.3,0.2-1.9,0.2h-3.5
				v7.9h-2.1V285.2z M234.9,293h3.5c1,0,1.9-0.2,2.6-0.7c0.7-0.5,1-1.2,1-2.2c0-1-0.3-1.7-1-2.2c-0.7-0.5-1.5-0.7-2.6-0.7h-3.5V293z
				"/>
			<path class="st1" d="M260.9,296.1c0,1-0.1,1.9-0.4,2.7c-0.2,0.9-0.6,1.6-1.1,2.3c-0.5,0.7-1.2,1.2-2.1,1.6
				c-0.8,0.4-1.9,0.6-3.1,0.6s-2.2-0.2-3.1-0.6c-0.8-0.4-1.5-0.9-2.1-1.6c-0.5-0.7-0.9-1.4-1.1-2.3c-0.2-0.9-0.4-1.8-0.4-2.7v-10.9
				h2.1v10.6c0,0.7,0.1,1.4,0.2,2.1c0.2,0.7,0.4,1.3,0.7,1.8c0.3,0.5,0.8,0.9,1.4,1.2c0.6,0.3,1.3,0.5,2.2,0.5s1.6-0.2,2.2-0.5
				c0.6-0.3,1-0.7,1.4-1.2c0.3-0.5,0.6-1.1,0.7-1.8c0.2-0.7,0.2-1.4,0.2-2.1v-10.6h2.1V296.1z"/>
			<path class="st1" d="M265.2,285.2h5.4c0.7,0,1.4,0.1,2.1,0.2c0.7,0.1,1.3,0.4,1.9,0.7c0.5,0.3,1,0.8,1.3,1.3
				c0.3,0.5,0.5,1.2,0.5,2c0,1-0.3,1.9-0.8,2.6c-0.6,0.7-1.3,1.2-2.3,1.4v0.1c0.6,0,1.1,0.2,1.6,0.4c0.5,0.2,0.9,0.6,1.3,0.9
				c0.4,0.4,0.6,0.8,0.8,1.3c0.2,0.5,0.3,1.1,0.3,1.6c0,1-0.2,1.8-0.6,2.4c-0.4,0.6-0.9,1.1-1.6,1.5c-0.7,0.4-1.4,0.6-2.2,0.8
				c-0.8,0.2-1.6,0.2-2.5,0.2h-5.3V285.2z M267.3,292.7h2.9c0.5,0,1,0,1.5-0.1c0.5-0.1,0.9-0.2,1.3-0.4c0.4-0.2,0.7-0.5,0.9-0.9
				c0.2-0.4,0.3-0.9,0.3-1.5c0-0.5-0.1-1-0.3-1.3c-0.2-0.3-0.5-0.6-0.9-0.8c-0.4-0.2-0.8-0.3-1.2-0.4c-0.5-0.1-0.9-0.1-1.4-0.1h-3.1
				V292.7z M267.3,300.9h3.5c0.5,0,1-0.1,1.5-0.2c0.5-0.1,1-0.3,1.4-0.5c0.4-0.2,0.7-0.6,1-0.9c0.2-0.4,0.4-0.9,0.4-1.4
				c0-0.6-0.1-1.1-0.4-1.5c-0.2-0.4-0.6-0.7-0.9-1c-0.4-0.2-0.8-0.4-1.3-0.5c-0.5-0.1-1-0.2-1.6-0.2h-3.6V300.9z"/>
			<path class="st1" d="M280.9,285.2h2.1v15.7h8.1v1.9h-10.2V285.2z"/>
			<path class="st1" d="M293.4,285.2h2.1v17.7h-2.1V285.2z"/>
			<path class="st1" d="M312.2,288.8c-0.5-0.7-1.2-1.3-2-1.6c-0.8-0.4-1.6-0.5-2.4-0.5c-1,0-1.9,0.2-2.7,0.6
				c-0.8,0.4-1.5,0.9-2.1,1.6c-0.6,0.7-1.1,1.5-1.4,2.3c-0.3,0.9-0.5,1.8-0.5,2.8c0,1,0.2,2,0.5,2.9c0.3,0.9,0.8,1.7,1.4,2.3
				c0.6,0.7,1.3,1.2,2.1,1.6c0.8,0.4,1.7,0.6,2.7,0.6c1.1,0,2-0.2,2.9-0.6c0.8-0.4,1.6-1,2.2-1.8l1.6,1.3c-0.8,1.1-1.8,1.8-2.9,2.3
				c-1.1,0.5-2.4,0.7-3.8,0.7c-1.3,0-2.4-0.2-3.5-0.7c-1.1-0.5-2.1-1.1-2.9-1.9c-0.8-0.8-1.4-1.8-1.9-2.9s-0.7-2.4-0.7-3.7
				c0-1.3,0.2-2.5,0.7-3.6c0.4-1.1,1.1-2.1,1.9-2.9c0.8-0.8,1.7-1.5,2.8-2c1.1-0.5,2.3-0.7,3.6-0.7c1.2,0,2.3,0.2,3.5,0.6
				c1.1,0.4,2,1.1,2.8,2.1L312.2,288.8z"/>
			<path class="st1" d="M317.4,285.2h2.1v17.7h-2.1V285.2z"/>
			<path class="st1" d="M323.6,285.2h6.8c0.6,0,1.2,0.1,1.8,0.2c0.6,0.1,1.3,0.3,1.9,0.6c0.6,0.3,1.3,0.7,1.8,1.1
				c0.6,0.5,1.1,1,1.6,1.7c0.4,0.7,0.8,1.4,1.1,2.3c0.3,0.9,0.4,1.8,0.4,2.9c0,1.1-0.1,2.1-0.4,2.9c-0.3,0.9-0.6,1.6-1.1,2.3
				c-0.4,0.7-1,1.2-1.6,1.7c-0.6,0.5-1.2,0.8-1.8,1.1c-0.6,0.3-1.3,0.5-1.9,0.6c-0.6,0.1-1.3,0.2-1.8,0.2h-6.8V285.2z M325.7,300.9
				h4c1,0,2-0.1,2.8-0.4c0.9-0.3,1.6-0.7,2.2-1.2c0.6-0.6,1.1-1.3,1.5-2.1s0.5-1.9,0.5-3.1s-0.2-2.3-0.5-3.1s-0.9-1.6-1.5-2.1
				c-0.6-0.6-1.4-1-2.2-1.2c-0.9-0.3-1.8-0.4-2.8-0.4h-4V300.9z"/>
			<path class="st1" d="M348.1,285.2h2l7.5,17.7h-2.4l-1.8-4.3h-8.8l-1.8,4.3h-2.4L348.1,285.2z M349.1,287.9L349.1,287.9l-3.7,8.7
				h7.2L349.1,287.9z"/>
			<path class="st1" d="M359.6,285.2h6.8c0.6,0,1.2,0.1,1.8,0.2c0.6,0.1,1.3,0.3,1.9,0.6c0.6,0.3,1.3,0.7,1.8,1.1
				c0.6,0.5,1.1,1,1.6,1.7c0.4,0.7,0.8,1.4,1.1,2.3c0.3,0.9,0.4,1.8,0.4,2.9c0,1.1-0.1,2.1-0.4,2.9c-0.3,0.9-0.6,1.6-1.1,2.3
				c-0.4,0.7-1,1.2-1.6,1.7c-0.6,0.5-1.2,0.8-1.8,1.1c-0.6,0.3-1.3,0.5-1.9,0.6c-0.6,0.1-1.3,0.2-1.8,0.2h-6.8V285.2z M361.7,300.9
				h4c1,0,2-0.1,2.8-0.4c0.9-0.3,1.6-0.7,2.2-1.2c0.6-0.6,1.1-1.3,1.5-2.1c0.4-0.9,0.5-1.9,0.5-3.1s-0.2-2.3-0.5-3.1
				c-0.4-0.9-0.9-1.6-1.5-2.1c-0.6-0.6-1.4-1-2.2-1.2c-0.9-0.3-1.8-0.4-2.8-0.4h-4V300.9z"/>
			<path class="st1" d="M378.4,285.2h11.1v1.9h-9v5.5h8.4v1.9h-8.4v6.3h9.5v1.9h-11.6V285.2z"/>
		</g>
	</g>
	<path class="st0" d="M64.2,186.9c-18.7,0-33.9,15.2-33.9,33.9s15.2,33.9,33.9,33.9s33.9-15.2,33.9-33.9S82.9,186.9,64.2,186.9z
		 M35.4,220.8c0-6.3,2-12.1,5.4-16.8l7.4,40.8C40.5,239.6,35.4,230.8,35.4,220.8z M42.8,208.1c3.2,9.2,4.5,14,4.6,24.5L42.8,208.1z
		 M64.2,249.6c-5.3,0-10.3-1.4-14.5-3.9l-1.8-10.6c13-12.3,24.2,3.5,40.5-2.6c-4.5-10.8-5.8-19.9-6.2-28.2
		c-17.6,9.3-23.3-15-40.1-0.2l-0.3-1.4C47,196.1,55.1,192,64.2,192c15.9,0,28.8,12.9,28.8,28.8C93,236.7,80.1,249.6,64.2,249.6z"/>
</g>
</svg>
